# xmcd CD database file
#
# Track frame offsets:
#	182
#	6600
#	34077
#	48220
#	69602
#	93032
#	116985
#	139030
#	157245
#
# Disc length: 2375 seconds
#
# Revision: 2
# Processed by: cddbd v1.4PL0 Copyright (c) Steve Scherf et al.
# Submitted via: CDex 1.50beta9
#
DISCID=7b094509
DTITLE=BB King - Indianola Mississippi Seeds
DYEAR=1987
DGENRE=Blues
TTITLE0=Nobody Loves Me But My Mother
TTITLE1=You're Still My Woman
TTITLE2=Ask Me No Questions
TTITLE3=Until' I'm Dead and Cold
TTITLE4=King's Special
TTITLE5=Ain't Gonna Worry My Life Anymore
TTITLE6=Chains and Things
TTITLE7=Go Underground
TTITLE8=Hummingbird
EXTD=YEAR: 1987
EXTT0=
EXTT1=
EXTT2=
EXTT3=
EXTT4=
EXTT5=
EXTT6=
EXTT7=
EXTT8=
PLAYORDER=
